<?xml version="1.0" encoding="utf-8"?>
<svg viewBox="18.0557 343.964 90.8083 58.79" width="90.8083" height="58.79" xmlns="http://www.w3.org/2000/svg" xmlns:bx="https://boxy-svg.com">
  <defs>
    <linearGradient gradientUnits="userSpaceOnUse" x1="70.694" y1="343.964" x2="70.694" y2="399.723" id="gradient-4" gradientTransform="matrix(0.974431, 0.224685, -0.229027, 0.993264, 80.584687, -13.566848)">
      <stop offset="0" style="stop-color: rgb(149, 198, 207);"/>
      <stop offset="1" style="stop-color: rgb(53, 80, 86);"/>
    </linearGradient>
    <linearGradient gradientUnits="userSpaceOnUse" x1="70.694" y1="343.964" x2="70.694" y2="399.723" id="gradient-5">
      <stop offset="0" style="stop-color: rgb(71.373% 30.98% 30.98%)"/>
      <stop offset="1" style="stop-color: rgb(49.837% 10.961% 14.438%)"/>
    </linearGradient>
    <linearGradient gradientUnits="userSpaceOnUse" x1="32.69" y1="352.591" x2="32.69" y2="386.253" id="gradient-6" gradientTransform="matrix(0.999722, -0.023591, 0.017428, 0.738571, -6.722643, 101.748829)">
      <stop offset="0" style="stop-color: rgb(122, 164, 173);"/>
      <stop offset="1" style="stop-color: rgb(79, 112, 119);"/>
    </linearGradient>
  </defs>
  <g transform="matrix(1, 0, 0, 1, 0, 5.684341886080802e-14)">
    <title>Coffee</title>
    <ellipse style="stroke-width: 0px; stroke: rgb(42, 42, 42); fill: rgb(171, 171, 171);" cx="69.829" cy="400.339" rx="26.291" ry="2.415"/>
    <path style="stroke-opacity: 0.89; stroke-width: 0px; stroke: url('#gradient-5'); fill: url('#gradient-4');" d="M 86.753 399.607 C 86.753 399.607 97.321 381.896 101.095 372.347 C 104.684 363.265 108.864 344.099 108.864 344.099 L 32.523 343.964 C 32.523 343.964 35.762 362.195 39.055 370.789 C 42.972 381.012 54.597 399.723 54.597 399.723 C 54.597 399.723 65.904 400.9 70.768 400.907 C 76.637 400.915 86.753 399.607 86.753 399.607 Z"/>
    <path style="stroke-width: 0px; stroke: rgb(113, 154, 162); fill: url('#gradient-6');" d="M 38.579 366.446 C 38.579 366.446 37.74427836341829 356.4054799320772 34.896 354.344 C 31.76972803340515 352.0813184432662 22.14009125457235 351.8190659280584 19.66 354.685 C 16.556283130794053 358.27158090048835 18.188739253303417 373.16654667612323 22.558 378.376 C 27.09795977140377 383.7889771356144 45.957935239439834 387.41648230285074 47.201 385.91 C 47.72551134181171 385.27433959102206 46.504630170929424 383.0883925867949 45.051 381.857 C 42.08940456193926 379.3481867265512 30.39924127914995 379.81423766210486 26.989 375.82 C 23.806291660509046 372.0922597973305 22.361866283138983 361.9000469577253 24.262 359.458 C 25.59873797966607 357.7400277922799 30.146823996602976 357.5506553419229 32.443 358.776 C 35.43858424911896 360.37458092413095 38.64646986207169 371.1854736612729 39.23 370.989 C 39.56443371753282 370.8763967038444 38.579 366.446 38.579 366.446 C 38.57899999999999 366.44599999999997 38.579 366.446 38.579 366.446 C 38.579 366.446 38.57900000000001 366.4460000000001 38.579 366.446" bx:d="M 38.579 366.446 R 34.896 354.344 R 19.66 354.685 R 22.558 378.376 R 47.201 385.91 R 45.051 381.857 R 26.989 375.82 R 24.262 359.458 R 32.443 358.776 R 39.23 370.989 R 38.579 366.446 R 38.579 366.446 Z 1@2cdf40f2"/>
  </g>
</svg>