<?xml version="1.0" encoding="utf-8"?>
<svg viewBox="-444.29 53.6219 789.7164 307.6127" width="789.7164" height="307.6127" xmlns="http://www.w3.org/2000/svg">
  <defs>
    <linearGradient gradientUnits="userSpaceOnUse" x1="227.686" y1="103.614" x2="227.686" y2="436.711" id="gradient-0" gradientTransform="matrix(0.99809, 0.039956, -0.051371, 0.747041, 40.165025, 24.714019)">
      <stop offset="0" style="stop-color: rgb(255, 255, 255); stop-opacity: 0.32;"/>
      <stop offset="1" style="stop-color: rgb(255, 255, 255); stop-opacity: 0;"/>
    </linearGradient>
    <linearGradient gradientUnits="userSpaceOnUse" x1="464.073" y1="53.06" x2="464.073" y2="425.172" id="gradient-3" gradientTransform="matrix(0.65381, -0.756659, 0.206, 0.178, 7.75854, 592.947154)">
      <stop offset="0" style="stop-color: rgb(58.431% 77.647% 81.176%)"/>
      <stop offset="1" style="stop-color: rgb(27.148% 45.765% 49.066%)"/>
    </linearGradient>
    <linearGradient gradientUnits="userSpaceOnUse" x1="464.073" y1="53.06" x2="464.073" y2="425.172" id="gradient-2" gradientTransform="matrix(0.999835, 0.018156, -0.017813, 0.980914, -155.186987, 0.165592)">
      <stop offset="0" style="stop-color: rgb(255, 255, 255);"/>
      <stop offset="1" style="stop-color: rgb(0% 0% 0%)"/>
    </linearGradient>
    <linearGradient gradientUnits="userSpaceOnUse" x1="425.739" y1="74.707" x2="425.739" y2="151.563" id="gradient-1" gradientTransform="matrix(0.674415, 0.738353, -0.539323, 0.492622, 44.543178, -266.396779)">
      <stop offset="0" style="stop-color: rgb(255, 255, 255);"/>
      <stop offset="1" style="stop-color: rgb(108, 160, 169);"/>
    </linearGradient>
  </defs>
  <path style="stroke: rgba(218, 55, 55, 0); stroke-width: 0.893; fill: url('#gradient-0'); stroke-opacity: 0;" d="M 217.951 98.525 L -444.29 360.023 L 272.695 359.274 L 267.933 139.027 L 280.73 116.912 L 252.881 106.013 L 217.951 98.525 Z" transform="matrix(1, 0, 0, 1, 5.684341886080802e-14, 0)"/>
  <g style="" transform="matrix(1, 0, 0, 1, -7.038622694541544, 4.9494551475967725)">
    <title>Lamp</title>
    <ellipse style="stroke: rgb(0, 0, 0); stroke-width: 0px; fill: rgb(149, 198, 207); transform-box: fill-box; transform-origin: 50% 50%;" cx="-301.817" cy="-347.864" rx="31.831" ry="8.421" transform="matrix(-1, 0, 0, -1, 603.633966, 695.728017)"/>
    <path style="stroke-width: 0px; stroke: url('#gradient-2'); fill: url('#gradient-3');" d="M 296.887 349.452 L 278.087 215.107 L 336.274 93.077 L 307.305 67.151 C 307.305 67.151 293.597 89.051 292.559 89.051 L 283.804 84.029 L 306.295 53.537 L 348.821 91.554 L 290.837 214.572 L 309.61 348.5 L 296.887 349.452 Z"/>
    <rect x="425.398" y="58.786" width="15.831" height="14.147" style="stroke: rgb(0, 0, 0); fill: rgb(207, 201, 188); stroke-width: 0px; transform-box: fill-box; transform-origin: 50% 50%;" transform="matrix(0.810226, 0.586117, -0.586117, 0.810226, -141.670611, 16.307456)"/>
    <rect x="276.097" y="207.576" width="17.178" height="17.178" style="stroke: rgb(0, 0, 0); fill: rgb(207, 201, 188); stroke-width: 0px;" rx="8.589" ry="8.589"/>
    <rect x="490.238" y="75.048" width="17.178" height="17.178" style="stroke: rgb(0, 0, 0); fill: rgb(207, 201, 188); stroke-width: 0px; transform-box: fill-box; transform-origin: 50.5386% 47.2798%;" transform="matrix(0.830978, 0.556306, -0.556306, 0.830978, -158.033071, 9.437138)" rx="8.589" ry="8.589"/>
    <rect x="458.239" y="50.123" width="17.178" height="17.178" style="stroke: rgb(0, 0, 0); fill: rgb(207, 201, 188); stroke-width: 0px; transform-box: fill-box; transform-origin: 50% 50%;" transform="matrix(0.540528, -0.841326, 0.841326, 0.540528, -157.921294, 1.829164)" rx="8.589" ry="8.589"/>
    <path style="fill: url('#gradient-1'); stroke: rgb(0, 0, 0); stroke-opacity: 0.89; stroke-width: 0px; transform-origin: 260.523px 107.918px;" d="M 279.847 72.609 L 250.102 80.612 L 224.526 93.555 L 243.292 115.776 L 261.351 134.621 L 275.877 150.206 L 291.118 127.185 L 301.784 96.121 L 279.847 72.609 Z"/>
  </g>
</svg>